<mxfile host="app.diagrams.net" modified="2021-02-18T13:33:17.681Z" agent="5.0 (Macintosh; Intel Mac OS X 10_15_6) AppleWebKit/605.1.15 (KHTML, like Gecko) Version/14.0.2 Safari/605.1.15" etag="lSJ8mNEqZTeDbfIDHsjz" version="14.4.2" type="github">
  <diagram id="ZsgP1N0dbKfEAmpLqv_m" name="第 1 页">
    <mxGraphModel dx="830" dy="541" grid="1" gridSize="10" guides="1" tooltips="1" connect="1" arrows="1" fold="1" page="1" pageScale="1" pageWidth="827" pageHeight="1169" math="0" shadow="0">
      <root>
        <mxCell id="0" />
        <mxCell id="1" parent="0" />
        <mxCell id="YVI6G27DtFbqulLZo4mp-3" value="源服务器" style="aspect=fixed;perimeter=ellipsePerimeter;html=1;align=center;shadow=0;dashed=0;spacingTop=3;image;image=img/lib/active_directory/web_server.svg;fontSize=16;" vertex="1" parent="1">
          <mxGeometry x="580" y="200" width="40" height="50" as="geometry" />
        </mxCell>
        <mxCell id="YVI6G27DtFbqulLZo4mp-4" value="代理服务器" style="aspect=fixed;perimeter=ellipsePerimeter;html=1;align=center;shadow=0;dashed=0;spacingTop=3;image;image=img/lib/active_directory/sql_server.svg;fontSize=16;" vertex="1" parent="1">
          <mxGeometry x="350" y="200" width="38.5" height="50" as="geometry" />
        </mxCell>
        <mxCell id="YVI6G27DtFbqulLZo4mp-5" value="客户端" style="aspect=fixed;perimeter=ellipsePerimeter;html=1;align=center;shadow=0;dashed=0;spacingTop=3;image;image=img/lib/active_directory/vista_terminal.svg;fontSize=16;" vertex="1" parent="1">
          <mxGeometry x="140" y="200" width="32.5" height="50" as="geometry" />
        </mxCell>
        <mxCell id="YVI6G27DtFbqulLZo4mp-6" value="" style="endArrow=none;dashed=1;html=1;dashPattern=1 3;strokeWidth=2;fontSize=16;" edge="1" parent="1" source="YVI6G27DtFbqulLZo4mp-9">
          <mxGeometry width="50" height="50" relative="1" as="geometry">
            <mxPoint x="160" y="490" as="sourcePoint" />
            <mxPoint x="160" y="280" as="targetPoint" />
          </mxGeometry>
        </mxCell>
        <mxCell id="YVI6G27DtFbqulLZo4mp-7" value="" style="endArrow=none;dashed=1;html=1;dashPattern=1 3;strokeWidth=2;fontSize=16;" edge="1" parent="1" source="YVI6G27DtFbqulLZo4mp-15">
          <mxGeometry width="50" height="50" relative="1" as="geometry">
            <mxPoint x="599.5" y="490" as="sourcePoint" />
            <mxPoint x="599.5" y="280" as="targetPoint" />
          </mxGeometry>
        </mxCell>
        <mxCell id="YVI6G27DtFbqulLZo4mp-8" value="&lt;span style=&quot;background-color: rgb(255 , 153 , 153)&quot;&gt;/url1&lt;/span&gt;" style="edgeStyle=orthogonalEdgeStyle;rounded=0;orthogonalLoop=1;jettySize=auto;html=1;fontSize=16;" edge="1" parent="1">
          <mxGeometry relative="1" as="geometry">
            <mxPoint x="173" y="325" as="sourcePoint" />
            <mxPoint x="340" y="323" as="targetPoint" />
            <Array as="points">
              <mxPoint x="256" y="325" />
              <mxPoint x="256" y="323" />
            </Array>
          </mxGeometry>
        </mxCell>
        <mxCell id="YVI6G27DtFbqulLZo4mp-9" value="" style="rounded=0;whiteSpace=wrap;html=1;fontSize=16;" vertex="1" parent="1">
          <mxGeometry x="142.5" y="310" width="30" height="250" as="geometry" />
        </mxCell>
        <mxCell id="YVI6G27DtFbqulLZo4mp-10" value="" style="endArrow=none;dashed=1;html=1;dashPattern=1 3;strokeWidth=2;fontSize=16;" edge="1" parent="1" target="YVI6G27DtFbqulLZo4mp-9">
          <mxGeometry width="50" height="50" relative="1" as="geometry">
            <mxPoint x="161" y="600" as="sourcePoint" />
            <mxPoint x="160" y="280" as="targetPoint" />
          </mxGeometry>
        </mxCell>
        <mxCell id="YVI6G27DtFbqulLZo4mp-11" value="&lt;span style=&quot;background-color: rgb(255 , 153 , 153)&quot;&gt;/url1&lt;/span&gt;" style="edgeStyle=orthogonalEdgeStyle;rounded=0;orthogonalLoop=1;jettySize=auto;html=1;fontSize=16;" edge="1" parent="1">
          <mxGeometry x="0.019" relative="1" as="geometry">
            <mxPoint x="583" y="340" as="targetPoint" />
            <mxPoint x="373" y="340" as="sourcePoint" />
            <Array as="points">
              <mxPoint x="523" y="340" />
              <mxPoint x="523" y="340" />
            </Array>
            <mxPoint as="offset" />
          </mxGeometry>
        </mxCell>
        <mxCell id="YVI6G27DtFbqulLZo4mp-14" value="&lt;span style=&quot;background-color: rgb(255 , 242 , 204)&quot;&gt;302 Found&lt;br&gt;Location: /url2&lt;/span&gt;" style="edgeStyle=orthogonalEdgeStyle;rounded=0;orthogonalLoop=1;jettySize=auto;html=1;entryX=1;entryY=0.75;entryDx=0;entryDy=0;fontSize=16;dashed=1;" edge="1" parent="1">
          <mxGeometry x="-0.0329" y="10" relative="1" as="geometry">
            <mxPoint x="583" y="370" as="sourcePoint" />
            <mxPoint as="offset" />
            <mxPoint x="370" y="370" as="targetPoint" />
          </mxGeometry>
        </mxCell>
        <mxCell id="YVI6G27DtFbqulLZo4mp-15" value="" style="rounded=0;whiteSpace=wrap;html=1;fontSize=16;" vertex="1" parent="1">
          <mxGeometry x="585" y="320" width="30" height="60" as="geometry" />
        </mxCell>
        <mxCell id="YVI6G27DtFbqulLZo4mp-16" value="" style="endArrow=none;dashed=1;html=1;dashPattern=1 3;strokeWidth=2;fontSize=16;" edge="1" parent="1" source="YVI6G27DtFbqulLZo4mp-20" target="YVI6G27DtFbqulLZo4mp-15">
          <mxGeometry width="50" height="50" relative="1" as="geometry">
            <mxPoint x="600" y="600" as="sourcePoint" />
            <mxPoint x="599.5" y="280" as="targetPoint" />
          </mxGeometry>
        </mxCell>
        <mxCell id="YVI6G27DtFbqulLZo4mp-20" value="" style="rounded=0;whiteSpace=wrap;html=1;fontSize=16;" vertex="1" parent="1">
          <mxGeometry x="585" y="440" width="30" height="60" as="geometry" />
        </mxCell>
        <mxCell id="YVI6G27DtFbqulLZo4mp-21" value="" style="endArrow=none;dashed=1;html=1;dashPattern=1 3;strokeWidth=2;fontSize=16;" edge="1" parent="1" target="YVI6G27DtFbqulLZo4mp-20">
          <mxGeometry width="50" height="50" relative="1" as="geometry">
            <mxPoint x="600" y="600" as="sourcePoint" />
            <mxPoint x="600" y="380" as="targetPoint" />
          </mxGeometry>
        </mxCell>
        <mxCell id="YVI6G27DtFbqulLZo4mp-23" value="&lt;span style=&quot;background-color: rgb(204 , 255 , 204)&quot;&gt;200 资源2&lt;/span&gt;" style="edgeStyle=orthogonalEdgeStyle;rounded=0;orthogonalLoop=1;jettySize=auto;html=1;fontSize=16;dashed=1;" edge="1" parent="1">
          <mxGeometry relative="1" as="geometry">
            <mxPoint x="179.5" y="501.96000000000004" as="targetPoint" />
            <mxPoint x="339.5" y="501.96000000000004" as="sourcePoint" />
            <Array as="points">
              <mxPoint x="337.5" y="501.96" />
            </Array>
          </mxGeometry>
        </mxCell>
        <mxCell id="YVI6G27DtFbqulLZo4mp-24" value="&lt;span style=&quot;background-color: rgb(102 , 255 , 255)&quot;&gt;/url2&lt;/span&gt;" style="edgeStyle=orthogonalEdgeStyle;rounded=0;orthogonalLoop=1;jettySize=auto;html=1;fontSize=16;" edge="1" parent="1">
          <mxGeometry x="0.019" relative="1" as="geometry">
            <mxPoint x="583" y="454.5" as="targetPoint" />
            <mxPoint x="373" y="454.5" as="sourcePoint" />
            <Array as="points">
              <mxPoint x="523" y="454.5" />
              <mxPoint x="523" y="454.5" />
            </Array>
            <mxPoint as="offset" />
          </mxGeometry>
        </mxCell>
        <mxCell id="YVI6G27DtFbqulLZo4mp-25" value="&lt;span style=&quot;background-color: rgb(204 , 255 , 204)&quot;&gt;200 资源2&lt;/span&gt;" style="edgeStyle=orthogonalEdgeStyle;rounded=0;orthogonalLoop=1;jettySize=auto;html=1;entryX=1;entryY=0.75;entryDx=0;entryDy=0;fontSize=16;dashed=1;" edge="1" parent="1">
          <mxGeometry x="-0.0329" relative="1" as="geometry">
            <mxPoint x="583" y="484.5" as="sourcePoint" />
            <mxPoint x="370" y="484.5" as="targetPoint" />
            <mxPoint as="offset" />
          </mxGeometry>
        </mxCell>
        <mxCell id="YVI6G27DtFbqulLZo4mp-28" value="" style="endArrow=none;dashed=1;html=1;dashPattern=1 3;strokeWidth=2;fontSize=16;" edge="1" parent="1" source="YVI6G27DtFbqulLZo4mp-26">
          <mxGeometry width="50" height="50" relative="1" as="geometry">
            <mxPoint x="360" y="600" as="sourcePoint" />
            <mxPoint x="360" y="280" as="targetPoint" />
          </mxGeometry>
        </mxCell>
        <mxCell id="YVI6G27DtFbqulLZo4mp-26" value="" style="rounded=0;whiteSpace=wrap;html=1;fontSize=16;" vertex="1" parent="1">
          <mxGeometry x="345" y="310" width="25" height="230" as="geometry" />
        </mxCell>
        <mxCell id="YVI6G27DtFbqulLZo4mp-29" value="" style="endArrow=none;dashed=1;html=1;dashPattern=1 3;strokeWidth=2;fontSize=16;" edge="1" parent="1" target="YVI6G27DtFbqulLZo4mp-26">
          <mxGeometry width="50" height="50" relative="1" as="geometry">
            <mxPoint x="360" y="600" as="sourcePoint" />
            <mxPoint x="360" y="280" as="targetPoint" />
          </mxGeometry>
        </mxCell>
      </root>
    </mxGraphModel>
  </diagram>
</mxfile>
